<svg id="Capa_1" enable-background="new 0 0 512 512" height="512" viewBox="0 0 512 512" width="512" xmlns="http://www.w3.org/2000/svg"><g><path d="m453.311 237.5c-4.143 0-7.5 3.357-7.5 7.5v215.125c0 20.333-16.582 36.875-36.965 36.875h-305.692c-20.383 0-36.965-16.542-36.965-36.875v-408.25c0-20.333 16.582-36.875 36.965-36.875h26.021c4.143 0 7.5-3.357 7.5-7.5s-3.357-7.5-7.5-7.5h-26.021c-28.653 0-51.965 23.271-51.965 51.875v408.25c0 28.604 23.312 51.875 51.965 51.875h305.691c28.653 0 51.965-23.271 51.965-51.875v-215.125c.001-4.143-3.357-7.5-7.499-7.5z"/><path d="m448.872 138.491-126.505-126.52c-7.718-7.72-17.985-11.971-28.91-11.971h-129.282c-4.143 0-7.5 3.357-7.5 7.5s3.357 7.5 7.5 7.5h129.282c2.165 0 4.288.264 6.334.775v107.696c0 20.714 16.85 37.566 37.561 37.566h107.694c.505 2.025.765 4.125.765 6.265v42.698c0 4.143 3.357 7.5 7.5 7.5s7.5-3.357 7.5-7.5v-42.698c0-10.879-4.241-21.112-11.939-28.811zm-134.081-15.02v-97.863l120.414 120.429h-97.854c-12.439 0-22.56-10.123-22.56-22.566z"/><path d="m241.473 341.038c.997-4.021-1.454-8.088-5.475-9.084-4.022-.998-8.088 1.454-9.084 5.475l-23.37 94.293c-3.319 13.379 4.865 26.964 18.245 30.283 12.924 3.513 27.339-5.138 30.283-18.245l49.646-200.317c3.506-12.973-5.136-27.318-18.241-30.282-12.978-3.514-27.323 5.132-30.287 18.245l-17.842 71.99c-.997 4.021 1.455 8.087 5.476 9.083 4.015.996 8.087-1.454 9.083-5.476l17.842-71.989c1.188-5.247 6.92-8.7 12.114-7.296 5.243 1.186 8.699 6.924 7.297 12.114l-49.646 200.317c-1.188 5.245-6.919 8.697-12.113 7.297-5.352-1.328-8.625-6.762-7.298-12.114z"/><path d="m190.5 276.5c0-6.678-2.601-12.956-7.322-17.678-9.307-9.698-26.049-9.698-35.355 0l-53.928 53.929c-13.562 13.007-13.561 36.49-.001 49.498l53.429 53.429c9.306 9.698 26.049 9.698 35.354 0 9.7-9.305 9.699-26.05.001-35.355l-42.823-42.823 43.321-43.322c4.723-4.722 7.324-11 7.324-17.678zm-17.93 7.07-48.625 48.626c-2.929 2.93-2.929 7.678 0 10.607l48.126 48.126c3.879 3.722 3.88 10.419-.001 14.141-3.722 3.881-10.419 3.88-14.141 0l-53.43-53.429c-7.741-7.423-7.741-20.861.001-28.283l53.929-53.929c3.899-3.901 10.242-3.899 14.142 0 3.879 3.723 3.88 10.42-.001 14.141z"/><path d="m383.325 368.815c-2.929 2.93-2.929 7.678 0 10.607 2.93 2.928 7.678 2.928 10.607 0l17.173-17.174c13.562-13.007 13.561-36.49.001-49.498l-53.929-53.929c-9.306-9.698-26.049-9.698-35.354 0-9.7 9.305-9.699 26.05-.001 35.355l43.322 43.322-42.821 42.822c-9.7 9.305-9.699 26.05-.001 35.355 9.307 9.698 26.049 9.698 35.355 0l11.49-11.49c2.929-2.93 2.929-7.678 0-10.607-2.93-2.928-7.678-2.928-10.607 0l-11.49 11.49c-3.722 3.881-10.419 3.88-14.142 0-3.879-3.722-3.88-10.419.001-14.141l48.125-48.126c2.929-2.93 2.929-7.678 0-10.607l-48.626-48.626c-3.879-3.722-3.88-10.419.001-14.141 3.898-3.9 10.242-3.9 14.141 0l53.93 53.929c7.741 7.423 7.741 20.861-.001 28.283z"/></g></svg>